#!OML:ASF E:\pregnant2\Project 1\Capture day 1\Session 1\pregnant2.ASF
:FULLY-SPECIFIED
:DEGREES
3097
root -5.31964 16.776 19.7558 38.0861 -2.21493 -1.08734
lowerback -10.1439 1.21865 1.36436
upperback -11.6787 1.54978 -0.317877
thorax -6.58064 0.664491 -1.03085
lowerneck -24.4828 -2.37101 -3.0404
upperneck 27.8429 -2.00776 -0.517891
head 13.537 -1.2797 -0.0658073
rclavicle -1.17034e-014 -7.25564e-015
rhumerus -74.1589 58.8352 -114.084
rradius 62.8282
rwrist 13.638
rhand -35.5249 -21.7542
rfingers 7.12502
rthumb -8.65131 -51.557
lclavicle -1.17034e-014 -7.25564e-015
lhumerus -52.0573 -46.0038 101.085
lradius 58.4334
lwrist -3.55692
lhand -8.30812 24.5511
lfingers 7.12502
lthumb 17.6124 53.7734
rfemur -62.2503 1.45984 18.5065
rtibia 42.255
rfoot -18.6559 -16.5195
rtoes -7.04781
lfemur -61.419 7.42829 -20.9304
ltibia 41.8029
lfoot -20.3238 17.5978
ltoes -4.2352
3098
root -5.32437 16.7498 19.7392 38.4084 -2.17236 -1.07318
lowerback -9.97355 1.20468 1.40118
upperback -11.6868 1.53163 -0.337977
thorax -6.68322 0.650621 -1.07719
lowerneck -24.6448 -2.38995 -3.05155
upperneck 27.6233 -2.04223 -0.462973
head 13.4791 -1.28619 -0.0487172
rclavicle 6.4605e-015 3.926e-015
rhumerus -71.8048 58.6555 -112.804
rradius 61.9214
rwrist 13.0186
rhand -34.4694 -21.4132
rfingers 7.12502
rthumb -7.63269 -51.2555
lclavicle 6.4605e-015 3.926e-015
lhumerus -50.2729 -44.9821 100.363
lradius 56.8073
lwrist -3.69422
lhand -7.84936 24.8578
lfingers 7.12502
lthumb 18.0538 54.0399
rfemur -62.9534 1.04832 18.8467
rtibia 42.7381
rfoot -18.5837 -16.0942
rtoes -7.13373
lfemur -62.1714 7.81135 -21.3198
ltibia 42.3133
lfoot -20.4489 17.6
ltoes -4.13594
3099
root -5.32885 16.7213 19.7232 38.7313 -2.12902 -1.06122
lowerback -9.81263 1.19182 1.4418
upperback -11.6962 1.5148 -0.356398
thorax -6.78227 0.637174 -1.12359
lowerneck -24.8065 -2.40607 -3.0556
upperneck 27.4117 -2.07139 -0.419992
head 13.4244 -1.29141 -0.036674
rclavicle -2.04997e-015 5.86415e-015
rhumerus -69.4792 58.4202 -111.554
rradius 60.9786
rwrist 12.6453
rhand -33.4486 -21.0657
rfingers 7.12502
rthumb -6.6473 -50.9414
lclavicle -2.04997e-015 5.86415e-015
lhumerus -48.574 -43.9492 99.7301
lradius 55.2067
lwrist -3.64788
lhand -7.61884 25.3044
lfingers 7.12502
lthumb 18.2756 54.4659
rfemur -63.6774 0.651191 19.1873
rtibia 43.2596
rfoot -18.5263 -15.6675
rtoes -7.22083
lfemur -62.9587 8.23002 -21.7473
ltibia 42.8594
lfoot -20.5427 17.4903
ltoes -4.05891
3100
root -5.33325 16.6903 19.7077 39.0483 -2.08547 -1.05139
lowerback -9.65111 1.17904 1.48143
upperback -11.7073 1.49846 -0.370281
thorax -6.88379 0.624174 -1.16461
lowerneck -24.9649 -2.41886 -3.05648
upperneck 27.2054 -2.09225 -0.39152
head 13.3711 -1.29486 -0.029393
rclavicle -1.35546e-014 -5.36719e-015
rhumerus -67.2127 58.136 -110.356
rradius 60.0027
rwrist 12.5105
rhand -32.467 -20.7117
rfingers 7.12502
rthumb -5.69962 -50.6151
lclavicle -1.35546e-014 -5.36719e-015
lhumerus -46.9593 -42.9132 99.1783
lradius 53.635
lwrist -3.48849
lhand -7.56875 25.8564
lfingers 7.12502
lthumb 18.3237 55.0133
rfemur -64.4162 0.264649 19.5325
rtibia 43.8211
rfoot -18.4903 -15.2465
rtoes -7.31611
lfemur -63.7735 8.67195 -22.2017
ltibia 43.441
lfoot -20.603 17.2607
ltoes -4.00968
3101
root -5.33756 16.6567 19.6927 39.358 -2.04201 -1.04587
lowerback -9.49094 1.16716 1.52049
upperback -11.7199 1.48371 -0.378588
thorax -6.98662 0.612209 -1.19932
lowerneck -25.1116 -2.42879 -3.05223
upperneck 26.9999 -2.10578 -0.380572
head 13.3155 -1.29717 -0.0284047
rclavicle 1.58034e-014 9.69075e-015
rhumerus -65.0156 57.8056 -109.215
rradius 59.0065
rwrist 12.5828
rhand -31.5186 -20.3567
rfingers 7.12502
rthumb -4.78389 -50.2826
lclavicle 1.58034e-014 9.69075e-015
lhumerus -45.4341 -41.8797 98.7
lradius 52.0985
lwrist -3.30937
lhand -7.66779 26.4737
lfingers 7.12502
lthumb 18.2285 55.6396
rfemur -65.17 -0.114123 19.8875
rtibia 44.4251
rfoot -18.4844 -14.8309
rtoes -7.41649
lfemur -64.6132 9.12241 -22.6677
ltibia 44.0593
lfoot -20.6396 16.9149
ltoes -4.01668
3102
root -5.34165 16.6208 19.6784 39.662 -1.99524 -1.0477
lowerback -9.34248 1.15551 1.56453
upperback -11.731 1.46933 -0.378683
thorax -7.08153 0.600464 -1.22782
lowerneck -25.2519 -2.43425 -3.04689
upperneck 26.7979 -2.10897 -0.383736
head 13.2598 -1.29697 -0.0311817
rclavicle -3.86388e-015 -2.33572e-015
rhumerus -62.8978 57.4437 -108.134
rradius 58.0027
rwrist 12.8029
rhand -30.587 -19.9659
rfingers 7.12502
rthumb -3.88436 -49.9103
lclavicle -3.86388e-015 -2.33572e-015
lhumerus -43.9939 -40.8516 98.2839
lradius 50.6002
lwrist -3.1976
lhand -7.82863 27.1202
lfingers 7.12502
lthumb 18.0737 56.3004
rfemur -65.9383 -0.489792 20.2602
rtibia 45.0728
rfoot -18.5104 -14.4179
rtoes -7.5305
lfemur -65.4758 9.57071 -23.133
ltibia 44.7143
lfoot -20.6609 16.4643
ltoes -4.07684
